<svg width="321" height="96" viewBox="0 0 321 96" fill="none" xmlns="http://www.w3.org/2000/svg">
<g clip-path="url(#clip0_10_164)">
<path d="M48.648 59.8467C46.2325 59.8486 43.8341 59.4744 41.5546 58.7401L41.3849 58.6854L41.5247 58.0848C37.3992 50.6606 38.8238 40.4565 45.1636 32.0662C50.931 24.4331 59.7147 18.8764 67.4634 13.9748C68.4172 13.3713 69.5453 13.043 70.7033 13.0319C71.8614 13.0208 72.9967 13.3274 73.964 13.9125C74.9313 14.4976 75.6866 15.3346 76.1333 16.3163C76.5799 17.2981 76.6977 18.3799 76.4713 19.4235L73.7319 32.0564C71.7376 41.2558 69.3664 49.9613 62.3481 55.3734C58.4793 58.2712 53.6394 59.8514 48.648 59.8467Z" fill="#07D226"/>
<path d="M43.3819 90.6974C41.9477 81.0971 40.4721 71.3726 41.4805 61.6693C42.3742 53.0517 45.2358 44.6362 51.0616 37.7331C54.1539 34.0766 57.9167 30.9437 62.1807 28.4753C63.2924 27.8307 64.3157 29.4492 63.2088 30.0912C55.8307 34.3753 50.1238 40.7014 46.9111 48.1576C43.3629 56.4489 42.7932 65.4877 43.4043 74.2956C43.7738 79.622 44.5588 84.9136 45.3472 90.1988C45.4094 90.4378 45.3706 90.6896 45.2384 90.9033C45.1063 91.117 44.8908 91.2767 44.6355 91.3499C44.375 91.4144 44.0974 91.3819 43.8628 91.2595C43.6283 91.1371 43.4557 90.9346 43.3826 90.6961L43.3819 90.6974Z" fill="#3F3D56"/>
<path d="M66.8346 81.9786C64.1991 81.9725 61.606 81.3684 59.2857 80.2199C56.9654 79.0715 54.9898 77.4144 53.5342 75.3957L53.4348 75.257L53.8327 74.9469C55.0297 68.9008 60.8274 63.5018 68.6258 61.1793C75.7126 59.0689 83.5629 59.4138 90.4869 59.7194C91.3492 59.7573 92.1795 60.0306 92.8717 60.5045C93.5639 60.9784 94.0865 61.6313 94.3725 62.3796C94.6585 63.128 94.6951 63.9377 94.4774 64.7052C94.2598 65.4727 93.7978 66.1631 93.1507 66.688L85.4142 72.9642C79.7736 77.5417 74.151 81.6748 67.3943 81.9691C67.2076 81.9753 67.0205 81.9786 66.8346 81.9786Z" fill="#07D226"/>
<path d="M39.3278 96.216C46.2327 84.9909 54.241 72.5156 68.5518 68.5281C72.5305 67.4232 76.7025 67.0274 80.843 67.362C82.1482 67.4655 81.8222 69.3136 80.5198 69.2107C73.5791 68.6812 66.6518 70.3651 60.904 73.9787C55.373 77.4377 51.0663 82.247 47.4217 87.3463C45.1889 90.4703 43.189 93.7265 41.1892 96.9784C40.5502 98.0178 38.6814 97.2673 39.3278 96.216Z" fill="#3F3D56"/>
<path d="M110.337 81.342C109.281 81.3429 108.233 81.1794 107.237 80.8584L107.067 80.8038L107.14 80.4897C105.363 77.2536 105.987 72.8251 108.737 69.1844C111.239 65.8738 115.039 63.4698 118.392 61.3492C118.822 61.0766 119.332 60.9284 119.855 60.9233C120.378 60.9183 120.89 61.0568 121.327 61.321C121.764 61.5852 122.105 61.9632 122.307 62.4065C122.508 62.8498 122.561 63.3384 122.459 63.8096L121.277 69.2621C120.412 73.2522 119.382 77.0287 116.324 79.3864C114.634 80.6532 112.518 81.3441 110.337 81.342Z" fill="#07D226"/>
<path d="M108.064 94.5506C107.445 90.4071 106.808 86.21 107.243 82.0221C107.629 78.3027 108.864 74.6706 111.378 71.6912C112.713 70.113 114.337 68.7609 116.177 67.6955C116.657 67.4173 117.099 68.1159 116.621 68.393C113.437 70.242 110.974 72.9723 109.587 76.1904C108.056 79.7689 107.81 83.6701 108.074 87.4716C108.233 89.7705 108.572 92.0543 108.912 94.3354C108.939 94.4386 108.922 94.5472 108.865 94.6395C108.808 94.7317 108.715 94.8006 108.605 94.8322C108.492 94.8601 108.373 94.846 108.271 94.7932C108.17 94.7404 108.096 94.653 108.064 94.55L108.064 94.5506Z" fill="#3F3D56"/>
<path d="M118.186 90.8943C117.03 90.8917 115.891 90.6266 114.873 90.1226C113.854 89.6185 112.987 88.8911 112.348 88.005L112.249 87.8663L112.468 87.6957C113.009 85.0632 115.534 82.7183 118.923 81.709C122.003 80.7921 125.4 80.9414 128.4 81.0738C128.795 81.0912 129.176 81.2165 129.493 81.4337C129.81 81.6509 130.05 81.9502 130.181 82.2932C130.312 82.6362 130.329 83.0074 130.229 83.3592C130.129 83.711 129.918 84.0275 129.621 84.2681L126.282 86.9769C123.831 88.9656 121.387 90.7615 118.433 90.8899C118.351 90.8929 118.269 90.8943 118.186 90.8943Z" fill="#07D226"/>
<path d="M106.314 96.9324C109.294 92.0877 112.751 86.7033 118.927 84.9823C120.644 84.5055 122.445 84.3347 124.232 84.479C124.795 84.5237 124.655 85.3214 124.093 85.2769C121.097 85.0484 118.107 85.7752 115.626 87.3348C113.239 88.8277 111.38 90.9034 109.807 93.1043C108.844 94.4526 107.981 95.858 107.117 97.2615C106.842 97.7101 106.035 97.3861 106.314 96.9324Z" fill="#3F3D56"/>
<path d="M282.641 80.9788C279.104 80.9788 276.409 79.2243 274.456 75.6752C272.584 72.2726 274.526 69.3348 277.122 68.0451C279.723 66.7525 283.469 66.8688 285.546 70.1764C287.57 73.3997 287.803 76.7403 286.237 80.107L286.314 80.4376L286.13 80.486C284.998 80.7989 283.823 80.9648 282.641 80.9788Z" fill="#07D226"/>
<path d="M286.132 97.5562C287.941 88.1585 288.055 76.2556 278.018 70.7012C277.539 70.423 277.097 71.1215 277.575 71.3986C287.265 76.7835 286.977 88.2824 285.284 97.3411C285.257 97.4431 285.275 97.5504 285.333 97.6406C285.391 97.7307 285.485 97.7967 285.595 97.8245C285.705 97.8523 285.823 97.8398 285.923 97.7897C286.023 97.7395 286.098 97.6557 286.132 97.5557L286.132 97.5562Z" fill="#3F3D56"/>
<path d="M239.998 90.1539C238.734 90.1226 237.494 89.8356 236.365 89.3133C233.52 88.0864 233.21 85.5097 234.127 83.6344C235.033 81.7801 237.311 80.2978 240.171 81.4261C241.451 81.8947 242.589 82.6409 243.487 83.6011C244.385 84.5612 245.017 85.7067 245.329 86.9399L245.562 87.1211L245.447 87.2627C243.882 89.1937 242.081 90.1539 239.998 90.1539Z" fill="#07D226"/>
<path d="M253.533 96.9325C249.972 90.6687 244.285 83.5848 235.615 84.4793C235.052 84.5238 235.192 85.3214 235.755 85.277C243.99 84.494 249.348 91.2989 252.729 97.2617C253.005 97.7102 253.812 97.3862 253.533 96.9325Z" fill="#3F3D56"/>
<path d="M243.715 73.2033H136.987C136.879 73.2033 136.775 73.1637 136.698 73.0933C136.621 73.0228 136.578 72.9273 136.578 72.8276C136.578 72.728 136.621 72.6324 136.698 72.562C136.775 72.4915 136.879 72.4519 136.987 72.4519H243.715C243.823 72.4519 243.927 72.4915 244.004 72.562C244.081 72.6324 244.124 72.728 244.124 72.8276C244.124 72.9273 244.081 73.0228 244.004 73.0933C243.927 73.1637 243.823 73.2033 243.715 73.2033Z" fill="#CACACA"/>
<path d="M191.858 10.1177L191.156 2.08066C191.089 1.90908 190.977 1.75557 190.829 1.63418C190.681 1.51278 190.503 1.42737 190.31 1.38578C190.117 1.34419 189.915 1.34774 189.724 1.3961C189.533 1.44446 189.358 1.5361 189.216 1.66261C183.576 2.93386 181.301 5.63914 180.649 9.03666C177.942 8.50963 175.16 8.39459 172.413 8.69611C174.396 6.1035 174.259 3.46113 172.197 0.773562C172.139 0.59772 172.034 0.438218 171.89 0.309901C171.747 0.181583 171.571 0.0886158 171.378 0.039666C171.186 -0.00928389 170.983 -0.0126339 170.788 0.0299316C170.593 0.0724971 170.414 0.159599 170.266 0.283117C166.451 2.05447 163.783 4.26194 163.354 7.32102C158.563 9.68151 154.721 13.39 152.392 17.9029C150.063 22.4158 149.369 27.4955 150.411 32.3974C151.453 37.2993 154.177 41.7655 158.184 45.1411C162.191 48.5166 167.269 50.6241 172.674 51.1544C178.079 51.6847 183.527 50.61 188.219 48.0879C192.911 45.5657 196.601 41.7288 198.746 37.1396C200.891 32.5505 201.38 27.4506 200.141 22.5876C198.901 17.7246 195.998 13.3544 191.858 10.1177Z" fill="#3F3D56"/>
<path d="M195.034 42.7326C215.65 40.303 227.247 71.1989 193.989 72.9202C191.948 74.9772 175.954 76.6973 162.4 73.8574C150.233 74.3052 136.403 59.6836 153.458 39.7408L195.034 42.7326Z" fill="#3F3D56"/>
<path d="M174.453 58.675V74.3052H182.407L188.717 58.3898" fill="#3F3D56"/>
<path d="M202.864 69.0341C202.82 68.9766 202.789 68.916 202.751 68.8571C202.412 68.8685 202.073 68.88 201.734 68.8915L202.864 69.0341Z" fill="#3F3D56"/>
<path d="M234.202 60.0029C231.663 56.2745 225.45 55.2385 221.647 57.9094C219.931 59.1146 218.775 60.8569 217.308 62.3144C214.842 64.7506 211.552 66.3502 207.973 66.8539C205.481 67.1971 202.845 67.0107 200.544 67.9535C198.313 68.8676 196.629 71.4773 197.844 73.3656C206.409 73.0755 214.975 72.7854 223.541 72.4954C226.005 72.412 228.557 72.3087 230.76 71.2917C235.038 69.3174 236.741 63.7314 234.202 60.0029Z" fill="#3F3D56"/>
<path d="M173.419 49.2029C169.9 49.2326 166.413 48.5933 163.177 47.3252C156.42 44.6302 153.322 40.0822 153.194 39.8899C153.152 39.8256 153.139 39.7485 153.158 39.6754C153.177 39.6024 153.227 39.5393 153.297 39.5C153.367 39.4606 153.45 39.4481 153.53 39.4653C153.61 39.4824 153.679 39.5278 153.722 39.5915C156.17 42.7859 159.541 45.2878 163.455 46.8149C169.54 49.2322 179.932 50.4433 194.878 42.486C194.914 42.4672 194.953 42.4549 194.993 42.4499C195.033 42.4449 195.074 42.4473 195.114 42.4569C195.153 42.4665 195.19 42.4832 195.223 42.5059C195.255 42.5286 195.282 42.557 195.303 42.5894C195.323 42.6218 195.336 42.6576 195.342 42.6948C195.347 42.7319 195.345 42.7696 195.334 42.8058C195.323 42.842 195.305 42.8759 195.28 42.9057C195.256 42.9354 195.225 42.9603 195.189 42.979C186.415 47.6502 179.171 49.2029 173.419 49.2029Z" fill="white"/>
<path d="M174.763 34.7432C174.188 34.7426 173.636 34.5323 173.229 34.1584C172.822 33.7846 172.594 33.2776 172.593 32.7489C172.593 32.6736 172.626 32.6015 172.684 32.5484C172.742 32.4953 172.821 32.4655 172.903 32.4655C172.985 32.4655 173.064 32.4953 173.122 32.5484C173.18 32.6015 173.213 32.6736 173.213 32.7489C173.214 33.1263 173.377 33.488 173.668 33.7547C173.959 34.0213 174.353 34.1711 174.763 34.1711C175.174 34.1711 175.568 34.0213 175.859 33.7547C176.15 33.488 176.313 33.1263 176.314 32.7489C176.314 32.6736 176.347 32.6015 176.405 32.5484C176.463 32.4953 176.542 32.4655 176.624 32.4655C176.706 32.4655 176.785 32.4953 176.843 32.5484C176.901 32.6015 176.934 32.6736 176.934 32.7489C176.933 33.2776 176.705 33.7845 176.298 34.1584C175.891 34.5323 175.339 34.7426 174.763 34.7432Z" fill="white"/>
<path d="M174.919 30.0642C176.289 30.0642 177.399 29.6717 177.399 29.1876C177.399 28.7035 176.289 28.311 174.919 28.311C173.549 28.311 172.438 28.7035 172.438 29.1876C172.438 29.6717 173.549 30.0642 174.919 30.0642Z" fill="white"/>
<path d="M158.238 29.2519C158.948 28.4711 159.836 27.843 160.839 27.412C161.842 26.981 162.936 26.7576 164.043 26.7576C165.151 26.7576 166.244 26.981 167.247 27.412C168.25 27.843 169.138 28.4711 169.848 29.2519C171.051 28.197 171.886 26.8382 172.248 25.3472C172.61 23.8563 172.483 22.3001 171.883 20.8756C171.282 19.4511 170.235 18.2221 168.875 17.3442C167.514 16.4662 165.901 15.9787 164.238 15.9432C162.576 15.9078 160.94 16.326 159.536 17.145C158.133 17.9641 157.025 19.1471 156.353 20.5445C155.682 21.9419 155.476 23.4909 155.762 24.9957C156.049 26.5005 156.815 27.8935 157.963 28.9984C158.052 29.0849 158.144 29.1694 158.238 29.2519Z" fill="white"/>
<path d="M180.936 29.2519C181.646 28.4711 182.534 27.843 183.537 27.412C184.54 26.981 185.634 26.7576 186.741 26.7576C187.848 26.7576 188.942 26.981 189.945 27.412C190.948 27.843 191.836 28.4711 192.546 29.2519C193.749 28.197 194.584 26.8382 194.946 25.3472C195.308 23.8563 195.181 22.3001 194.58 20.8756C193.98 19.4511 192.933 18.2221 191.573 17.3442C190.212 16.4662 188.598 15.9787 186.936 15.9432C185.274 15.9078 183.638 16.326 182.234 17.145C180.831 17.964 179.723 19.147 179.051 20.5444C178.379 21.9419 178.174 23.4909 178.46 24.9957C178.747 26.5005 179.512 27.8934 180.66 28.9984C180.75 29.0849 180.842 29.1694 180.936 29.2519Z" fill="white"/>
<path d="M160.358 27.0733C161.955 27.0733 163.25 25.8837 163.25 24.4163C163.25 22.9489 161.955 21.7594 160.358 21.7594C158.761 21.7594 157.466 22.9489 157.466 24.4163C157.466 25.8837 158.761 27.0733 160.358 27.0733Z" fill="#3F3D56"/>
<path d="M183.055 27.0733C184.652 27.0733 185.947 25.8837 185.947 24.4163C185.947 22.9489 184.652 21.7594 183.055 21.7594C181.458 21.7594 180.163 22.9489 180.163 24.4163C180.163 25.8837 181.458 27.0733 183.055 27.0733Z" fill="#3F3D56"/>
<path d="M187.012 34.8745C188.411 34.8745 189.546 33.8321 189.546 32.5463C189.546 31.2604 188.411 30.2181 187.012 30.2181C185.612 30.2181 184.478 31.2604 184.478 32.5463C184.478 33.8321 185.612 34.8745 187.012 34.8745Z" fill="#FF6584"/>
<path d="M164.112 34.8745C165.512 34.8745 166.646 33.8321 166.646 32.5463C166.646 31.2604 165.512 30.2181 164.112 30.2181C162.713 30.2181 161.578 31.2604 161.578 32.5463C161.578 33.8321 162.713 34.8745 164.112 34.8745Z" fill="#FF6584"/>
<path d="M137.033 72.7085C138.05 72.1258 137.332 69.3803 135.43 66.5762C133.527 63.7722 131.16 61.9715 130.143 62.5541C129.125 63.1368 129.843 65.8823 131.746 68.6863C133.648 71.4904 136.015 73.2911 137.033 72.7085Z" fill="#3F3D56"/>
<path d="M147.404 53.4966L133.588 66.8673L137.19 72.5672L150.233 65.4062" fill="#3F3D56"/>
<path d="M171.566 78.2281C171.741 77.1385 169 75.863 165.442 75.3791C161.885 74.8952 158.858 75.3862 158.683 76.4758C158.507 77.5653 161.249 78.8409 164.806 79.3248C168.364 79.8086 171.39 79.3176 171.566 78.2281Z" fill="#3F3D56"/>
<path d="M162.35 58.5266L164.491 76.8581L171.539 78.2028L174.059 64.2584" fill="#3F3D56"/>
<path d="M193.446 77.8514C197.021 77.4961 199.815 76.3203 199.686 75.2252C199.557 74.1302 196.554 73.5306 192.979 73.8859C189.403 74.2413 186.609 75.4171 186.738 76.5122C186.867 77.6072 189.87 78.2068 193.446 77.8514Z" fill="#3F3D56"/>
<path d="M185.363 58.2925L192.463 75.5364L199.653 75.2061L198.267 61.128" fill="#3F3D56"/>
</g>
<defs>
<clipPath id="clip0_10_164">
<rect width="321" height="98" fill="white"/>
</clipPath>
</defs>
</svg>
